<svg width="60" height="64" viewBox="0 0 60 64" fill="none" xmlns="http://www.w3.org/2000/svg">
<path fill-rule="evenodd" clip-rule="evenodd" d="M0.000183105 28.8078C0.000183105 26.7106 2.62644 25.7661 3.9621 27.383C4.65881 28.2263 5.86325 28.4422 6.80948 27.8932L51.4554 1.99229C54.8373 0.0303138 59.0739 2.4704 59.0739 6.38021V34.7391C59.0739 36.8167 56.5019 37.7883 55.1282 36.2296C54.4173 35.4229 53.2357 35.2306 52.3057 35.7701L7.61865 61.6949C4.23675 63.6569 0.000183105 61.2168 0.000183105 57.307V28.8078Z" fill="url(#paint0_radial)"/>
<path fill-rule="evenodd" clip-rule="evenodd" d="M0.000183105 28.8078C0.000183105 26.7106 2.62644 25.7661 3.9621 27.383C4.65881 28.2263 5.86325 28.4422 6.80948 27.8932L51.4554 1.99229C54.8373 0.0303138 59.0739 2.4704 59.0739 6.38021V34.7391C59.0739 36.8167 56.5019 37.7883 55.1282 36.2296C54.4173 35.4229 53.2357 35.2306 52.3057 35.7701L7.61865 61.6949C4.23675 63.6569 0.000183105 61.2168 0.000183105 57.307V28.8078Z" fill="url(#paint1_radial)"/>
<path fill-rule="evenodd" clip-rule="evenodd" d="M59.0737 34.7647C59.0737 32.9561 58.1108 31.2844 56.5464 30.3768L7.61848 1.99165C4.23658 0.0296736 0 2.46976 0 6.37957V28.9212C0 30.7298 0.962878 32.4016 2.52725 33.3091L51.4552 61.6943C54.8371 63.6562 59.0737 61.2162 59.0737 57.3063V34.7647Z" fill="white"/>
<defs>
<radialGradient id="paint0_radial" cx="0" cy="0" r="1" gradientUnits="userSpaceOnUse" gradientTransform="translate(29.537 31.8436) rotate(90) scale(30.5439 29.5368)">
<stop stop-color="#62ABEE"/>
<stop offset="1" stop-color="white"/>
</radialGradient>
<radialGradient id="paint1_radial" cx="0" cy="0" r="1" gradientUnits="userSpaceOnUse" gradientTransform="translate(29.537 31.8436) rotate(90) scale(30.5439 29.5368)">
<stop stop-color="#097AE1"/>
<stop offset="1" stop-color="white" stop-opacity="0"/>
</radialGradient>
</defs>
</svg>
